<mxfile host="app.diagrams.net" modified="2021-10-27T03:02:20.027Z" agent="5.0 (X11; Linux x86_64) AppleWebKit/537.36 (KHTML, like Gecko) Chrome/93.0.4577.63 Safari/537.36" etag="p2JHazBncDPdjbaHn1uW" version="15.5.9" type="github">
  <diagram id="C5RBs43oDa-KdzZeNtuy" name="Page-1">
    <mxGraphModel dx="908" dy="1768" grid="1" gridSize="10" guides="1" tooltips="1" connect="1" arrows="1" fold="1" page="1" pageScale="1" pageWidth="827" pageHeight="1169" math="0" shadow="0">
      <root>
        <mxCell id="WIyWlLk6GJQsqaUBKTNV-0" />
        <mxCell id="WIyWlLk6GJQsqaUBKTNV-1" parent="WIyWlLk6GJQsqaUBKTNV-0" />
        <mxCell id="STj_Q7QqaSjpMb7IW9D1-3" value="" style="edgeStyle=orthogonalEdgeStyle;rounded=0;orthogonalLoop=1;jettySize=auto;html=1;" edge="1" parent="WIyWlLk6GJQsqaUBKTNV-1" source="STj_Q7QqaSjpMb7IW9D1-2">
          <mxGeometry relative="1" as="geometry">
            <mxPoint x="220" y="80" as="targetPoint" />
          </mxGeometry>
        </mxCell>
        <mxCell id="STj_Q7QqaSjpMb7IW9D1-2" value="requestAudioFocus" style="ellipse;whiteSpace=wrap;html=1;aspect=fixed;" vertex="1" parent="WIyWlLk6GJQsqaUBKTNV-1">
          <mxGeometry x="165" y="-70" width="110" height="110" as="geometry" />
        </mxCell>
        <mxCell id="STj_Q7QqaSjpMb7IW9D1-6" value="" style="edgeStyle=orthogonalEdgeStyle;rounded=0;orthogonalLoop=1;jettySize=auto;html=1;" edge="1" parent="WIyWlLk6GJQsqaUBKTNV-1" source="STj_Q7QqaSjpMb7IW9D1-4" target="STj_Q7QqaSjpMb7IW9D1-5">
          <mxGeometry relative="1" as="geometry" />
        </mxCell>
        <mxCell id="STj_Q7QqaSjpMb7IW9D1-9" value="" style="edgeStyle=orthogonalEdgeStyle;rounded=0;orthogonalLoop=1;jettySize=auto;html=1;" edge="1" parent="WIyWlLk6GJQsqaUBKTNV-1" source="STj_Q7QqaSjpMb7IW9D1-4" target="STj_Q7QqaSjpMb7IW9D1-8">
          <mxGeometry relative="1" as="geometry" />
        </mxCell>
        <mxCell id="STj_Q7QqaSjpMb7IW9D1-4" value="&lt;span style=&quot;font-size: 10.5pt ; font-family: &amp;#34;ms mincho&amp;#34;&quot;&gt;&lt;font face=&quot;Century Gothic&quot;&gt;a valid binder callback&lt;/font&gt;&lt;/span&gt;&lt;span style=&quot;font-family: &amp;#34;century gothic&amp;#34; ; font-size: 10.5pt&quot;&gt;?&lt;/span&gt;" style="rhombus;whiteSpace=wrap;html=1;" vertex="1" parent="WIyWlLk6GJQsqaUBKTNV-1">
          <mxGeometry x="170" y="80" width="100" height="80" as="geometry" />
        </mxCell>
        <mxCell id="STj_Q7QqaSjpMb7IW9D1-5" value="request failed" style="rounded=1;whiteSpace=wrap;html=1;" vertex="1" parent="WIyWlLk6GJQsqaUBKTNV-1">
          <mxGeometry x="450" y="95" width="80" height="50" as="geometry" />
        </mxCell>
        <mxCell id="STj_Q7QqaSjpMb7IW9D1-7" value="NO" style="text;html=1;strokeColor=none;fillColor=none;align=center;verticalAlign=middle;whiteSpace=wrap;rounded=0;" vertex="1" parent="WIyWlLk6GJQsqaUBKTNV-1">
          <mxGeometry x="270" y="90" width="60" height="30" as="geometry" />
        </mxCell>
        <mxCell id="STj_Q7QqaSjpMb7IW9D1-19" value="" style="edgeStyle=orthogonalEdgeStyle;rounded=0;orthogonalLoop=1;jettySize=auto;html=1;" edge="1" parent="WIyWlLk6GJQsqaUBKTNV-1" source="STj_Q7QqaSjpMb7IW9D1-8" target="STj_Q7QqaSjpMb7IW9D1-18">
          <mxGeometry relative="1" as="geometry" />
        </mxCell>
        <mxCell id="STj_Q7QqaSjpMb7IW9D1-8" value="&lt;span style=&quot;font-size: 10.5pt ; text-align: left ; font-family: &amp;#34;ms mincho&amp;#34;&quot;&gt;&lt;font face=&quot;Century Gothic&quot;&gt;OP_TAKE_AUDIO_FOCUS&lt;/font&gt;&lt;/span&gt;&lt;span style=&quot;font-family: &amp;#34;century gothic&amp;#34; ; font-size: 10.5pt ; text-align: left&quot;&gt;&amp;nbsp;permission?&lt;/span&gt;" style="rhombus;whiteSpace=wrap;html=1;" vertex="1" parent="WIyWlLk6GJQsqaUBKTNV-1">
          <mxGeometry x="70" y="190" width="300" height="80" as="geometry" />
        </mxCell>
        <mxCell id="STj_Q7QqaSjpMb7IW9D1-10" value="YES" style="text;html=1;strokeColor=none;fillColor=none;align=center;verticalAlign=middle;whiteSpace=wrap;rounded=0;" vertex="1" parent="WIyWlLk6GJQsqaUBKTNV-1">
          <mxGeometry x="160" y="160" width="60" height="30" as="geometry" />
        </mxCell>
        <mxCell id="STj_Q7QqaSjpMb7IW9D1-11" value="request failed" style="rounded=1;whiteSpace=wrap;html=1;" vertex="1" parent="WIyWlLk6GJQsqaUBKTNV-1">
          <mxGeometry x="450" y="205" width="80" height="50" as="geometry" />
        </mxCell>
        <mxCell id="STj_Q7QqaSjpMb7IW9D1-14" value="" style="endArrow=classic;html=1;rounded=0;exitX=1;exitY=0.5;exitDx=0;exitDy=0;entryX=0;entryY=0.5;entryDx=0;entryDy=0;" edge="1" parent="WIyWlLk6GJQsqaUBKTNV-1" source="STj_Q7QqaSjpMb7IW9D1-8" target="STj_Q7QqaSjpMb7IW9D1-11">
          <mxGeometry width="50" height="50" relative="1" as="geometry">
            <mxPoint x="280" y="380" as="sourcePoint" />
            <mxPoint x="330" y="330" as="targetPoint" />
          </mxGeometry>
        </mxCell>
        <mxCell id="STj_Q7QqaSjpMb7IW9D1-15" value="NO" style="text;html=1;strokeColor=none;fillColor=none;align=center;verticalAlign=middle;whiteSpace=wrap;rounded=0;" vertex="1" parent="WIyWlLk6GJQsqaUBKTNV-1">
          <mxGeometry x="360" y="200" width="60" height="30" as="geometry" />
        </mxCell>
        <mxCell id="STj_Q7QqaSjpMb7IW9D1-18" value="&lt;span style=&quot;font-size: 14px&quot;&gt;synchronized(mAudioFocusLock)&lt;/span&gt;" style="whiteSpace=wrap;html=1;" vertex="1" parent="WIyWlLk6GJQsqaUBKTNV-1">
          <mxGeometry x="105" y="310" width="230" height="60" as="geometry" />
        </mxCell>
        <mxCell id="STj_Q7QqaSjpMb7IW9D1-20" value="YES" style="text;html=1;strokeColor=none;fillColor=none;align=center;verticalAlign=middle;whiteSpace=wrap;rounded=0;" vertex="1" parent="WIyWlLk6GJQsqaUBKTNV-1">
          <mxGeometry x="160" y="270" width="60" height="30" as="geometry" />
        </mxCell>
      </root>
    </mxGraphModel>
  </diagram>
</mxfile>
